<svg viewBox="0 0 67 67" fill="none" xmlns="http://www.w3.org/2000/svg">
<path d="M24.0165 5.79552L57.9969 14.4162C58.7787 14.6172 59.3373 15.3095 59.3373 16.0912L59.382 49.3008C59.382 50.0155 60.2309 50.4175 60.8117 49.9931L66.2852 46.0401C66.7321 45.7051 67.0001 45.1915 67.0001 44.6555L66.9777 27.5705C66.9554 16.7612 59.4266 7.33652 48.5914 4.58953L30.6741 0.0558618C30.1378 -0.078138 29.5793 0.0335327 29.155 0.346199L23.7036 4.29919C23.123 4.72352 23.3016 5.61686 24.0165 5.79552Z" fill="currentColor"/>
<path d="M51.9198 32.9081C51.9198 25.3818 46.6476 18.8158 39.1186 16.8952L22.6536 12.7188L15.6385 10.9322C15.1023 10.7982 14.5438 10.9098 14.1194 11.2225L7.19371 16.2475L0.714903 20.9375C0.268087 21.2725 -1.97538e-06 21.7862 -1.95195e-06 22.3222L0.0223395 39.4071C0.0223399 50.2165 7.57352 59.6634 18.3864 62.3881L36.3037 66.9218C36.8399 67.0558 37.3985 66.9441 37.8228 66.6314L44.7486 61.6064L51.2273 56.9164C51.6741 56.5814 51.9424 56.0678 51.9424 55.5318L51.9424 48.7201L51.9198 32.9081ZM44.3017 26.9898L44.324 45.4148C44.324 46.1295 43.6315 46.6431 42.9166 46.4645L24.0163 41.6851C23.2345 41.4841 22.6759 40.7918 22.6759 40.0101L22.6536 21.5852C22.6536 20.8705 23.3461 20.3568 24.061 20.5355L42.9612 25.3148C43.7431 25.5158 44.3017 26.2082 44.3017 26.9898ZM42.9389 61.1598L8.98098 52.5615C8.19905 52.3605 7.64054 51.6681 7.64054 50.8865L7.59585 17.7438C7.59585 17.0292 8.28842 16.5155 9.00331 16.6942L14.03 17.9672C14.6109 18.1235 15.0353 18.6372 15.0353 19.2178L15.0353 28.4862C15.0577 39.2731 22.5866 48.7201 33.4218 51.4671L43.3411 53.9908C43.922 54.1471 44.3464 54.6608 44.3464 55.2415L44.3464 60.1101C44.3464 60.8248 43.6538 61.3384 42.9389 61.1598Z" fill="currentColor"/>
</svg>
